<?xml version="1.0" encoding="UTF-8" standalone="no"?>
<svg
   xmlns:dc="http://purl.org/dc/elements/1.1/"
   xmlns:cc="http://creativecommons.org/ns#"
   xmlns:rdf="http://www.w3.org/1999/02/22-rdf-syntax-ns#"
   xmlns:svg="http://www.w3.org/2000/svg"
   xmlns="http://www.w3.org/2000/svg"
   xml:space="preserve"
   style="enable-background:new 0 0 512 512;"
   viewBox="0 0 512 512"
   y="0px"
   x="0px"
   id="Layer_1"
   version="1.1"><metadata
     id="metadata4563"><rdf:RDF><cc:Work
         rdf:about=""><dc:format>image/svg+xml</dc:format><dc:type
           rdf:resource="http://purl.org/dc/dcmitype/StillImage" /><dc:title></dc:title></cc:Work></rdf:RDF></metadata><defs
     id="defs4561" /><path
     id="path4504"
     d="M214.033,485.027C214.033,499.923,232.822,512,256,512s41.967-12.076,41.967-26.973L214.033,485.027  L214.033,485.027z"
     style="fill:#afafaf;fill-opacity:1" /><path
     id="path4506"
     d="M440.656,329.137H256H71.344c0,0-33.574,33.574-33.574,67.148c0,0,117.508-67.148,142.689,41.967  c5.103,22.116,8.393,75.541,75.541,50.361c67.148,25.18,70.438-28.245,75.541-50.361c25.18-109.115,142.689-41.967,142.689-41.967  C474.229,362.711,440.656,329.137,440.656,329.137z"
     style="fill:#cccccc;fill-opacity:1" /><path
     id="path4508"
     d="M298.596,159.475c0,0,125.902-159.475,167.869-159.475c25.18,0-16.787,201.443-41.967,268.59  L298.596,159.475z"
     style="fill:#006b05;fill-opacity:1" /><path
     id="path4510"
     d="M466.465,0C382.53,58.754,348.956,201.443,348.956,201.443l-2.889-0.826l-47.471-41.141  C298.596,159.475,424.497,0,466.465,0z"
     style="fill:#31a659;fill-opacity:1" /><path
     id="path4512"
     d="M205.01,159.475C205.01,159.475,79.108,0,37.141,0c-25.18,0,16.787,201.443,41.967,268.59  L205.01,159.475z"
     style="fill:#006b05;fill-opacity:1" /><g
     style="fill:#31a659;fill-opacity:1"
     id="g4518"><path
       id="path4514"
       d="M37.141,0c83.934,58.754,117.508,201.443,117.508,201.443l2.889-0.826l47.471-41.141   C205.01,159.475,79.108,0,37.141,0z"
       style="fill:#31a659;fill-opacity:1" /><path
       id="path4516"
       d="M12.59,386.098c0,0,92.328-58.754,159.475-16.787c35.588,22.243,25.18,83.585,83.934,83.585   s48.346-61.342,83.934-83.585c67.148-41.967,159.475,16.787,159.475,16.787c-41.967-151.082-148.476-251.803-243.409-251.803   S54.557,235.016,12.59,386.098z"
       style="fill:#31a659;fill-opacity:1" /></g><g
     id="g4526"><circle
       id="circle4520"
       r="16.787"
       cy="327.344"
       cx="188.852"
       style="fill:#464655;" /><circle
       id="circle4522"
       r="16.787"
       cy="327.344"
       cx="323.148"
       style="fill:#464655;" /><path
       id="path4524"
       d="M285.377,448.174c0,10.14-13.153,25.705-29.377,25.705s-29.377-15.565-29.377-25.705   c0-10.14,13.153-18.361,29.377-18.361C272.224,429.813,285.377,438.034,285.377,448.174z"
       style="fill:#464655;" /></g><g
     id="g4528" /><g
     id="g4530" /><g
     id="g4532" /><g
     id="g4534" /><g
     id="g4536" /><g
     id="g4538" /><g
     id="g4540" /><g
     id="g4542" /><g
     id="g4544" /><g
     id="g4546" /><g
     id="g4548" /><g
     id="g4550" /><g
     id="g4552" /><g
     id="g4554" /><g
     id="g4556" /></svg>